<svg width="16" height="14" viewBox="0 0 16 14" fill="none" xmlns="http://www.w3.org/2000/svg">
<path d="M13.5971 2.1818C13.0816 1.61948 12.1508 1.58483 11.5303 2.20533L5.45529 8.28033C5.29819 8.43744 5.29819 8.63757 5.45529 8.79467C5.6124 8.95178 5.81253 8.95178 5.96963 8.79467L10.9946 3.76967C11.2875 3.47678 11.7624 3.47678 12.0553 3.76967C12.3482 4.06257 12.3482 4.53744 12.0553 4.83033L7.03029 9.85533C6.2874 10.5982 5.13753 10.5982 4.39463 9.85533C3.65174 9.11244 3.65174 7.96257 4.39463 7.21967L10.4696 1.14467C11.6453 -0.0309737 13.5558 -0.0692286 14.6917 1.15616C15.8559 2.33247 15.8902 4.23368 14.6696 5.366L7.55529 12.4803C5.9124 14.1232 3.33753 14.1232 1.69463 12.4803C0.0517402 10.8374 0.0517402 8.26257 1.69463 6.61967L7.76963 0.544675C8.06252 0.251782 8.5374 0.251782 8.83029 0.544675C9.12319 0.837568 9.12319 1.31244 8.83029 1.60533L2.75529 7.68033C1.69819 8.73744 1.69819 10.3626 2.75529 11.4197C3.8124 12.4768 5.43753 12.4768 6.49463 11.4197L13.6196 4.29467C13.6273 4.28699 13.6352 4.27948 13.6432 4.27214C14.2055 3.75668 14.2401 2.82584 13.6196 2.20533C13.6119 2.19765 13.6044 2.18981 13.5971 2.1818Z" fill="#1C1D22"/>
</svg>
