<svg width="16" height="16" viewBox="0 0 16 16" fill="none" xmlns="http://www.w3.org/2000/svg">
<path d="M5.80064 0.7441C6.05491 0.998368 6.11741 1.38706 5.95565 1.70821C5.5339 2.54559 5.29601 3.49197 5.29601 4.49632C5.29601 7.92474 8.07529 10.704 11.5037 10.704C12.508 10.704 13.4544 10.4661 14.2918 10.0444C14.613 9.88262 15.0017 9.94511 15.2559 10.1994C15.5102 10.4536 15.5727 10.8423 15.4109 11.1635C14.1163 13.7339 11.4524 15.5 8.37436 15.5C4.02547 15.5 0.5 11.9746 0.5 7.62567C0.5 4.54767 2.26617 1.88368 4.83653 0.589093C5.15769 0.42734 5.54638 0.489833 5.80064 0.7441ZM3.68475 3.55802C2.73864 4.64786 2.16667 6.07027 2.16667 7.62567C2.16667 11.0541 4.94594 13.8334 8.37436 13.8334C9.92975 13.8334 11.3522 13.2614 12.442 12.3153C12.1342 12.3519 11.8211 12.3707 11.5037 12.3707C7.15481 12.3707 3.62934 8.84521 3.62934 4.49632C3.62934 4.17895 3.64816 3.86581 3.68475 3.55802Z" fill="white"/>
</svg>
