<svg width="18" height="18" viewBox="0 0 18 18" fill="none" xmlns="http://www.w3.org/2000/svg">
<path d="M9 0.666748C9.46024 0.666748 9.83334 1.03984 9.83334 1.50008V2.33341C9.83334 2.79365 9.46024 3.16675 9 3.16675C8.53977 3.16675 8.16667 2.79365 8.16667 2.33341V1.50008C8.16667 1.03984 8.53977 0.666748 9 0.666748ZM14.8926 3.10752C15.218 3.43296 15.218 3.96059 14.8926 4.28603L14.3033 4.87529C13.9779 5.20072 13.4503 5.20072 13.1248 4.87529C12.7994 4.54985 12.7994 4.02221 13.1248 3.69677L13.7141 3.10752C14.0395 2.78208 14.5672 2.78208 14.8926 3.10752ZM3.10744 3.10752C3.43288 2.78208 3.96052 2.78208 4.28595 3.10752L4.87521 3.69677C5.20065 4.02221 5.20065 4.54985 4.87521 4.87529C4.54977 5.20072 4.02214 5.20072 3.6967 4.87529L3.10744 4.28603C2.78201 3.96059 2.78201 3.43296 3.10744 3.10752ZM9 5.66675C7.15905 5.66675 5.66667 7.15913 5.66667 9.00008C5.66667 10.841 7.15905 12.3334 9 12.3334C10.841 12.3334 12.3333 10.841 12.3333 9.00008C12.3333 7.15913 10.841 5.66675 9 5.66675ZM4 9.00008C4 6.23866 6.23858 4.00008 9 4.00008C11.7614 4.00008 14 6.23866 14 9.00008C14 11.7615 11.7614 14.0001 9 14.0001C6.23858 14.0001 4 11.7615 4 9.00008ZM0.666672 9.00008C0.666672 8.53984 1.03977 8.16675 1.5 8.16675H2.33334C2.79358 8.16675 3.16667 8.53984 3.16667 9.00008C3.16667 9.46032 2.79358 9.83341 2.33334 9.83341H1.5C1.03977 9.83341 0.666672 9.46032 0.666672 9.00008ZM14.8333 9.00008C14.8333 8.53984 15.2064 8.16675 15.6667 8.16675H16.5C16.9602 8.16675 17.3333 8.53984 17.3333 9.00008C17.3333 9.46032 16.9602 9.83341 16.5 9.83341H15.6667C15.2064 9.83341 14.8333 9.46032 14.8333 9.00008ZM3.6967 13.1249C4.02214 12.7994 4.54977 12.7994 4.87521 13.1249C5.20065 13.4503 5.20065 13.9779 4.87521 14.3034L4.28595 14.8926C3.96052 15.2181 3.43288 15.2181 3.10744 14.8926C2.78201 14.5672 2.78201 14.0396 3.10744 13.7141L3.6967 13.1249ZM13.1248 14.3034C12.7994 13.9779 12.7994 13.4503 13.1248 13.1249C13.4503 12.7994 13.9779 12.7994 14.3033 13.1249L14.8926 13.7141C15.218 14.0396 15.218 14.5672 14.8926 14.8926C14.5672 15.2181 14.0395 15.2181 13.7141 14.8926L13.1248 14.3034ZM9 14.8334C9.46024 14.8334 9.83334 15.2065 9.83334 15.6667V16.5001C9.83334 16.9603 9.46024 17.3334 9 17.3334C8.53977 17.3334 8.16667 16.9603 8.16667 16.5001V15.6667C8.16667 15.2065 8.53977 14.8334 9 14.8334Z" fill="white"/>
</svg>
