<svg width="16" height="14" viewBox="0 0 16 14" fill="none" xmlns="http://www.w3.org/2000/svg">
<path d="M0.5 1.5C0.5 0.671573 1.17157 0 2 0H14C14.8284 0 15.5 0.671573 15.5 1.5V9.75C15.5 10.5784 14.8284 11.25 14 11.25H10.5607L8.53033 13.2803C8.23744 13.5732 7.76256 13.5732 7.46967 13.2803L5.43934 11.25H2C1.17157 11.25 0.5 10.5784 0.5 9.75V1.5ZM14 1.5H2V9.75H5.75C5.94891 9.75 6.13968 9.82902 6.28033 9.96967L8 11.6893L9.71967 9.96967C9.86032 9.82902 10.0511 9.75 10.25 9.75H14V1.5ZM3.5 4.125C3.5 3.71079 3.83579 3.375 4.25 3.375H11.75C12.1642 3.375 12.5 3.71079 12.5 4.125C12.5 4.53921 12.1642 4.875 11.75 4.875H4.25C3.83579 4.875 3.5 4.53921 3.5 4.125ZM3.5 7.125C3.5 6.71079 3.83579 6.375 4.25 6.375H8.75C9.16421 6.375 9.5 6.71079 9.5 7.125C9.5 7.53921 9.16421 7.875 8.75 7.875H4.25C3.83579 7.875 3.5 7.53921 3.5 7.125Z" fill="#1C1D22"/>
</svg>
