<svg width="12" height="8" viewBox="0 0 12 8" fill="none" xmlns="http://www.w3.org/2000/svg">
<path d="M0.666656 0.666606C0.666656 0.298416 0.965133 -6.10352e-05 1.33332 -6.10352e-05H1.99999C2.36818 -6.10352e-05 2.66666 0.298416 2.66666 0.666606C2.66666 1.0348 2.36818 1.33327 1.99999 1.33327H1.33332C0.965133 1.33327 0.666656 1.0348 0.666656 0.666606ZM3.99999 0.666606C3.99999 0.298416 4.29847 -6.10352e-05 4.66666 -6.10352e-05H10.6667C11.0348 -6.10352e-05 11.3333 0.298416 11.3333 0.666606C11.3333 1.0348 11.0348 1.33327 10.6667 1.33327H4.66666C4.29847 1.33327 3.99999 1.0348 3.99999 0.666606ZM0.666656 3.99994C0.666656 3.63175 0.965133 3.33327 1.33332 3.33327H1.99999C2.36818 3.33327 2.66666 3.63175 2.66666 3.99994C2.66666 4.36813 2.36818 4.66661 1.99999 4.66661H1.33332C0.965133 4.66661 0.666656 4.36813 0.666656 3.99994ZM3.99999 3.99994C3.99999 3.63175 4.29847 3.33327 4.66666 3.33327H10.6667C11.0348 3.33327 11.3333 3.63175 11.3333 3.99994C11.3333 4.36813 11.0348 4.66661 10.6667 4.66661H4.66666C4.29847 4.66661 3.99999 4.36813 3.99999 3.99994ZM0.666656 7.33327C0.666656 6.96508 0.965133 6.66661 1.33332 6.66661H1.99999C2.36818 6.66661 2.66666 6.96508 2.66666 7.33327C2.66666 7.70146 2.36818 7.99994 1.99999 7.99994H1.33332C0.965133 7.99994 0.666656 7.70146 0.666656 7.33327ZM3.99999 7.33327C3.99999 6.96508 4.29847 6.66661 4.66666 6.66661H10.6667C11.0348 6.66661 11.3333 6.96508 11.3333 7.33327C11.3333 7.70146 11.0348 7.99994 10.6667 7.99994H4.66666C4.29847 7.99994 3.99999 7.70146 3.99999 7.33327Z" fill="#1C1D22"/>
</svg>
